<svg width="47" height="38" viewBox="0 0 47 38" fill="none" xmlns="http://www.w3.org/2000/svg">
<path d="M1.89495 23.8255C1.02012 22.3681 0.557983 20.7003 0.557983 19.0005C0.557983 17.3007 1.02012 15.6329 1.89495 14.1755C2.1638 13.7268 2.52356 13.3393 2.95109 13.0379C3.37863 12.7365 3.86449 12.5279 4.37745 12.4255L8.60995 11.578C8.86237 11.528 9.09002 11.393 9.25495 11.1955L14.4249 4.98798C17.3799 1.43798 18.8599 -0.334518 20.1774 0.142982C21.4949 0.620483 21.4999 2.93048 21.4999 7.55048V30.4555C21.4999 35.073 21.4999 37.3805 20.1799 37.8605C18.8624 38.3355 17.3824 36.563 14.4274 33.0155L9.24995 26.8055C9.08566 26.6085 8.85896 26.4735 8.60745 26.423L4.37495 25.5755C3.86199 25.4731 3.37613 25.2645 2.94859 24.9631C2.52106 24.6617 2.1638 24.2742 1.89495 23.8255Z" fill="#00091B"/>
<path d="M27.84 10.1609C30.1725 12.4934 31.4886 15.6533 31.5012 18.952C31.5139 22.2507 30.2221 25.4206 27.9075 27.7709M38.1425 4.8584C41.8745 8.59006 43.9804 13.6456 44.001 18.9232C44.0216 24.2009 41.9553 29.2727 38.2525 33.0334" stroke="#00091B" stroke-width="5" stroke-linecap="round"/>
</svg>
