<svg width="61" height="38" viewBox="0 0 61 38" fill="none" xmlns="http://www.w3.org/2000/svg">
<path d="M59.6504 20.4941C60.2168 21.7441 60.5 23.043 60.5 24.3906V26.5C60.5 27.2422 60.4023 27.9551 60.207 28.6387C60.0117 29.3223 59.7188 29.957 59.3281 30.543C58.9375 31.1289 58.4688 31.6563 57.9219 32.125C57.375 32.5938 56.7695 32.9844 56.1055 33.2969C55.8125 33.9805 55.4316 34.5957 54.9629 35.1426C54.4941 35.6895 53.957 36.1484 53.3516 36.5195C52.7461 36.8906 52.1016 37.1934 51.418 37.4277C50.7344 37.6621 50.0117 37.7695 49.25 37.75C47.9023 37.75 46.6523 37.418 45.5 36.7539C44.3477 36.0898 43.4297 35.1719 42.7461 34H22.0039C21.3203 35.1719 20.4023 36.0898 19.25 36.7539C18.0977 37.418 16.8477 37.75 15.5 37.75C14.1523 37.75 12.9023 37.418 11.75 36.7539C10.5977 36.0898 9.67969 35.1719 8.99609 34H4.25C3.72266 34 3.23438 33.9023 2.78516 33.707C2.33594 33.5117 1.94531 33.2481 1.61328 32.916C1.28125 32.584 1.00781 32.1836 0.792969 31.7148C0.578125 31.2461 0.480469 30.7578 0.5 30.25V22.75C0.5 21.207 0.792969 19.752 1.37891 18.3848C1.96484 17.0176 2.76562 15.8262 3.78125 14.8105C4.79688 13.7949 5.98828 12.9844 7.35547 12.3789C8.72266 11.7734 10.1875 11.4805 11.75 11.5H12.834L22.4434 1.89063C22.9707 1.36328 23.5762 0.962891 24.2598 0.689453C24.9434 0.416016 25.666 0.269531 26.4277 0.25H53V4H52.1504L59.6504 20.4941ZM15.5 34C16.0273 34 16.5156 33.9023 16.9648 33.707C17.4141 33.5117 17.8047 33.2481 18.1367 32.916C18.4688 32.584 18.7422 32.1836 18.957 31.7148C19.1719 31.2461 19.2695 30.7578 19.25 30.25C19.25 29.7227 19.1523 29.2344 18.957 28.7852C18.7617 28.3359 18.498 27.9453 18.166 27.6133C17.834 27.2813 17.4336 27.0078 16.9648 26.793C16.4961 26.5781 16.0078 26.4805 15.5 26.5C14.9727 26.5 14.4844 26.5977 14.0352 26.793C13.5859 26.9883 13.1953 27.252 12.8633 27.584C12.5312 27.916 12.2578 28.3164 12.043 28.7852C11.8281 29.2539 11.7305 29.7422 11.75 30.25C11.75 30.7773 11.8477 31.2656 12.043 31.7148C12.2383 32.1641 12.502 32.5547 12.834 32.8867C13.166 33.2188 13.5664 33.4922 14.0352 33.707C14.5039 33.9219 14.9922 34.0195 15.5 34ZM34.25 4H26.4277C25.9199 4 25.4805 4.18555 25.1094 4.55664L18.166 11.5H34.25V4ZM38 11.5H51.4473L48.5469 5.08398C48.3906 4.75195 48.1562 4.48828 47.8438 4.29297C47.5312 4.09766 47.1895 4 46.8184 4H38V11.5ZM49.25 34C49.7773 34 50.2656 33.9023 50.7148 33.707C51.1641 33.5117 51.5547 33.2481 51.8867 32.916C52.2188 32.584 52.4922 32.1836 52.707 31.7148C52.9219 31.2461 53.0195 30.7578 53 30.25C53 29.7227 52.9023 29.2344 52.707 28.7852C52.5117 28.3359 52.248 27.9453 51.916 27.6133C51.584 27.2813 51.1836 27.0078 50.7148 26.793C50.2461 26.5781 49.7578 26.4805 49.25 26.5C48.7227 26.5 48.2344 26.5977 47.7852 26.793C47.3359 26.9883 46.9453 27.252 46.6133 27.584C46.2812 27.916 46.0078 28.3164 45.793 28.7852C45.5781 29.2539 45.4805 29.7422 45.5 30.25C45.5 30.7773 45.5977 31.2656 45.793 31.7148C45.9883 32.1641 46.252 32.5547 46.584 32.8867C46.916 33.2188 47.3164 33.4922 47.7852 33.707C48.2539 33.9219 48.7422 34.0195 49.25 34Z" fill="#00091B"/>
</svg>
